<?xml version="1.0" encoding="utf-8"?>
<!-- Generator: Adobe Illustrator 26.1.0, SVG Export Plug-In . SVG Version: 6.00 Build 0)  -->
<svg version="1.1" xmlns="http://www.w3.org/2000/svg" xmlns:xlink="http://www.w3.org/1999/xlink" x="0px" y="0px"
	 viewBox="0 0 929.1 719.7" style="enable-background:new 0 0 929.1 719.7;" xml:space="preserve">
<style type="text/css">
	.st0{fill:#FFFFFF;}
	.st1{fill:#FF0000;}
	.st2{fill:#FF0000;fill-opacity:0;}
	.st3{opacity:0;fill:#FF0000;}
</style>
<g id="А">
	<path d="M530.4,664.2L309.7,34.5C304.8,14.3,286.7,0,265.9,0S227,14.3,222.1,34.5L1.3,664.2c-5.8,24.2,9.1,48.5,33.3,54.2
		c3.5,0.8,7,1.2,10.5,1.2c20.3,0,38.8-13.9,43.7-34.5l68.3-187.3h216.7L443,685.1c5.8,24.2,30.1,39.1,54.2,33.3
		C521.3,712.7,536.2,688.4,530.4,664.2z M191.7,407.8l74.2-209.6l73.2,209.6H191.7z"/>
	<path class="st0" d="M526.6,665.3L305.8,35.7v-0.2C301.3,16.9,284.9,4,265.9,4S230.5,16.9,226,35.5v0.2L5.2,665.3
		c-5.1,21.9,8.4,44,30.4,49.2c3.2,0.8,6.4,1.1,9.6,1.1c19,0,35.4-12.9,39.8-31.5l0.1-0.3l69.3-190.1h222.1l70.3,190.1l0.1,0.3
		c4.4,18.5,20.8,31.5,39.8,31.5c3.2,0,6.4-0.4,9.6-1.1c10.7-2.6,19.7-9.1,25.4-18.4C527.3,686.8,529.1,675.9,526.6,665.3z
		 M185.8,411.8l80.1-224.5L345,411.8H185.8z"/>
	<path class="st1" d="M518.9,667.5L298.1,37.9l-0.1-0.6C294.4,22.4,281.2,12,265.9,12s-28.5,10.4-32.1,25.3l-0.1,0.6L12.9,667.5
		C9,685,20,702.5,37.4,706.7c2.5,0.6,5.1,0.9,7.7,0.9c15.3,0,28.5-10.4,32.1-25.3l0.2-0.8l71.5-195.7h234l71.5,195.7l0.2,0.8
		c3.6,14.9,16.8,25.3,32.1,25.3c2.6,0,5.2-0.3,7.7-0.9c8.6-2.1,15.8-7.3,20.4-14.8C519.3,684.6,520.8,675.9,518.9,667.5z
		 M173.1,419.8l92.8-254.2l92.8,254.2H173.1z"/>
	<path class="st0" d="M178.6,451.9c0,5-4,9-9,9s-9-4-9-9s4-9,9-9S178.6,447,178.6,451.9z M209.5,442.9c-5,0-9,4-9,9s4,9,9,9s9-4,9-9
		C218.5,447,214.5,442.9,209.5,442.9z M249.4,442.9c-5,0-9,4-9,9s4,9,9,9s9-4,9-9C258.4,447,254.4,442.9,249.4,442.9z M289.3,442.9
		c-5,0-9,4-9,9s4,9,9,9s9-4,9-9C298.3,447,294.3,442.9,289.3,442.9z M329.2,442.9c-5,0-9,4-9,9s4,9,9,9s9-4,9-9
		C338.2,447,334.2,442.9,329.2,442.9z M350.9,476.8c19.1-8.9,27.8-20.7,28.2-21.2c1.4-1.9,1.2-4.6-0.4-6.4
		c-0.5-0.5-11.9-12.5-27.6-20.6c-2.5-1.3-5.5-0.3-6.7,2.2c-1.3,2.5-0.3,5.5,2.2,6.7c9.5,4.9,17.4,11.5,21.6,15.4
		c-3.6,3.6-10.5,9.7-21.5,14.8c-2.5,1.2-3.6,4.1-2.4,6.6c0.8,1.8,2.7,2.9,4.5,2.9C349.5,477.3,350.2,477.1,350.9,476.8z"/>
	<path class="st0" d="M268.1,62.3c-4.7,1.7-9.8-0.8-11.5-5.5c-1.7-4.7,0.8-9.8,5.5-11.5s9.8,0.8,11.5,5.5S272.8,60.7,268.1,62.3z
		 M285.9,85.2c-1.7-4.7-6.8-7.1-11.5-5.5c-4.7,1.7-7.1,6.8-5.5,11.5c1.7,4.7,6.8,7.1,11.5,5.5C285.1,95,287.5,89.9,285.9,85.2z
		 M298.1,119.5c-1.7-4.7-6.8-7.1-11.5-5.5c-4.7,1.7-7.1,6.8-5.5,11.5c1.7,4.7,6.8,7.1,11.5,5.5S299.8,124.2,298.1,119.5z
		 M310.4,153.9c-1.7-4.7-6.8-7.1-11.5-5.5c-4.7,1.7-7.1,6.8-5.5,11.5c1.7,4.7,6.8,7.1,11.5,5.5C309.6,163.7,312,158.6,310.4,153.9z
		 M322.6,188.2c-1.7-4.7-6.8-7.1-11.5-5.5c-4.7,1.7-7.1,6.8-5.5,11.5c1.7,4.7,6.8,7.1,11.5,5.5C321.8,198.1,324.3,192.9,322.6,188.2
		z M334.9,222.6c-1.7-4.7-6.8-7.1-11.5-5.5c-4.7,1.7-7.1,6.8-5.5,11.5c1.7,4.7,6.8,7.1,11.5,5.5
		C334.1,232.4,336.5,227.3,334.9,222.6z M347.1,256.9c-1.7-4.7-6.8-7.1-11.5-5.5c-4.7,1.7-7.1,6.8-5.5,11.5s6.8,7.1,11.5,5.5
		C346.4,266.8,348.8,261.6,347.1,256.9z M359.4,291.3c-1.7-4.7-6.8-7.1-11.5-5.5c-4.7,1.7-7.1,6.8-5.5,11.5
		c1.7,4.7,6.8,7.1,11.5,5.5C358.6,301.1,361.1,296,359.4,291.3z M371.6,325.6c-1.7-4.7-6.8-7.1-11.5-5.5c-4.7,1.7-7.1,6.8-5.5,11.5
		c1.7,4.7,6.8,7.1,11.5,5.5C370.9,335.5,373.3,330.3,371.6,325.6z M383.9,360c-1.7-4.7-6.8-7.1-11.5-5.5c-4.7,1.7-7.1,6.8-5.5,11.5
		c1.7,4.7,6.8,7.1,11.5,5.5C383.1,369.8,385.6,364.7,383.9,360z M396.1,394.3c-1.7-4.7-6.8-7.1-11.5-5.5c-4.7,1.7-7.1,6.8-5.5,11.5
		s6.8,7.1,11.5,5.5C395.4,404.2,397.8,399,396.1,394.3z M408.4,428.7c-1.7-4.7-6.8-7.1-11.5-5.5c-4.7,1.7-7.1,6.8-5.5,11.5
		c1.7,4.7,6.8,7.1,11.5,5.5C407.6,438.5,410.1,433.4,408.4,428.7z M420.7,463c-1.7-4.7-6.8-7.1-11.5-5.5c-4.7,1.7-7.1,6.8-5.5,11.5
		c1.7,4.7,6.8,7.1,11.5,5.5C419.9,472.9,422.3,467.7,420.7,463z M432.9,497.4c-1.7-4.7-6.8-7.1-11.5-5.5c-4.7,1.7-7.1,6.8-5.5,11.5
		c1.7,4.7,6.8,7.1,11.5,5.5C432.1,507.2,434.6,502.1,432.9,497.4z M445.2,531.7c-1.7-4.7-6.8-7.1-11.5-5.5
		c-4.7,1.7-7.1,6.8-5.5,11.5c1.7,4.7,6.8,7.1,11.5,5.5C444.4,541.6,446.8,536.4,445.2,531.7z M457.4,566.1
		c-1.7-4.7-6.8-7.1-11.5-5.5c-4.7,1.7-7.1,6.8-5.5,11.5c1.7,4.7,6.8,7.1,11.5,5.5C456.6,575.9,459.1,570.8,457.4,566.1z
		 M469.7,600.4c-1.7-4.7-6.8-7.1-11.5-5.5c-4.7,1.7-7.1,6.8-5.5,11.5c1.7,4.7,6.8,7.1,11.5,5.5C468.9,610.3,471.3,605.1,469.7,600.4
		z M481.9,634.8c-1.7-4.7-6.8-7.1-11.5-5.5c-4.7,1.7-7.1,6.8-5.5,11.5c1.7,4.7,6.8,7.1,11.5,5.5
		C481.2,644.6,483.6,639.5,481.9,634.8z M493.6,685c0.3-0.6,8.5-15.1,11.6-32.4c0.5-2.7-1.3-5.3-4.1-5.8c-2.7-0.5-5.3,1.3-5.8,4.1
		c-1.9,10.5-5.9,20-8.4,25.2c-4.5-2.4-12.4-7.3-20.4-16.1c-1.8-2.1-5-2.2-7.1-0.4s-2.2,5-0.4,7.1c14.1,15.6,27.9,20.5,28.5,20.7
		c0.7,0.2,1.4,0.3,2.2,0.2C491.3,687.3,492.7,686.4,493.6,685z"/>
	<path class="st0" d="M62.9,626.8c4.7,1.7,7.1,6.8,5.4,11.5c-1.7,4.7-6.8,7.1-11.5,5.4c-4.7-1.7-7.1-6.8-5.4-11.5
		S58.2,625.1,62.9,626.8z M64.2,596.4c-1.7,4.7,0.8,9.8,5.4,11.5c4.7,1.7,9.8-0.8,11.5-5.4c1.7-4.7-0.8-9.8-5.4-11.5
		S65.9,591.7,64.2,596.4z M77,560.5c-1.7,4.7,0.8,9.8,5.4,11.5s9.8-0.8,11.5-5.4c1.7-4.7-0.8-9.8-5.4-11.5
		C83.9,553.4,78.7,555.9,77,560.5z M89.9,524.7c-1.7,4.7,0.8,9.8,5.4,11.5c4.7,1.7,9.8-0.8,11.5-5.4c1.7-4.7-0.8-9.8-5.4-11.5
		C96.7,517.6,91.5,520,89.9,524.7z M102.7,488.8c-1.7,4.7,0.8,9.8,5.4,11.5s9.8-0.8,11.5-5.4c1.7-4.7-0.8-9.8-5.4-11.5
		C109.5,481.7,104.4,484.1,102.7,488.8z M115.5,453c-1.7,4.7,0.8,9.8,5.4,11.5c4.7,1.7,9.8-0.8,11.5-5.4s-0.8-9.8-5.4-11.5
		C122.3,445.8,117.2,448.3,115.5,453z M128.3,417.1c-1.7,4.7,0.8,9.8,5.4,11.5c4.7,1.7,9.8-0.8,11.5-5.4c1.7-4.7-0.8-9.8-5.4-11.5
		S130,412.4,128.3,417.1z M141.1,381.2c-1.7,4.7,0.8,9.8,5.4,11.5s9.8-0.8,11.5-5.4c1.7-4.7-0.8-9.8-5.4-11.5
		C147.9,374.1,142.8,376.6,141.1,381.2z M153.9,345.4c-1.7,4.7,0.8,9.8,5.4,11.5c4.7,1.7,9.8-0.8,11.5-5.4s-0.8-9.8-5.4-11.5
		C160.8,338.3,155.6,340.7,153.9,345.4z M166.7,309.5c-1.7,4.7,0.8,9.8,5.4,11.5c4.7,1.7,9.8-0.8,11.5-5.4c1.7-4.7-0.8-9.8-5.4-11.5
		C173.6,302.4,168.4,304.8,166.7,309.5z M179.6,273.7c-1.7,4.7,0.8,9.8,5.4,11.5c4.7,1.7,9.8-0.8,11.5-5.4c1.7-4.7-0.8-9.8-5.4-11.5
		C186.4,266.5,181.2,269,179.6,273.7z M192.4,237.8c-1.7,4.7,0.8,9.8,5.4,11.5c4.7,1.7,9.8-0.8,11.5-5.4c1.7-4.7-0.8-9.8-5.4-11.5
		C199.2,230.7,194,233.1,192.4,237.8z M205.2,201.9c-1.7,4.7,0.8,9.8,5.4,11.5c4.7,1.7,9.8-0.8,11.5-5.4c1.7-4.7-0.8-9.8-5.4-11.5
		S206.9,197.3,205.2,201.9z M218,166.1c-1.7,4.7,0.8,9.8,5.4,11.5c4.7,1.7,9.8-0.8,11.5-5.4c1.7-4.7-0.8-9.8-5.4-11.5
		C224.8,159,219.7,161.4,218,166.1z M230.8,130.2c-1.7,4.7,0.8,9.8,5.4,11.5c4.7,1.7,9.8-0.8,11.5-5.4c1.7-4.7-0.8-9.8-5.4-11.5
		C237.6,123.1,232.5,125.5,230.8,130.2z M243.6,94.4c-1.7,4.7,0.8,9.8,5.4,11.5c4.7,1.7,9.8-0.8,11.5-5.4s-0.8-9.8-5.4-11.5
		C250.5,87.2,245.3,89.7,243.6,94.4z M44.5,691.2c0.6-0.3,15.4-7.8,27.7-20.5c1.9-2,1.8-5.2-0.1-7.1c-2-1.9-5.2-1.8-7.1,0.1
		c-7.4,7.7-16,13.4-21,16.3c-2.5-4.5-6.3-13-8-24.8c-0.4-2.7-2.9-4.6-5.7-4.2c-2.7,0.4-4.6,2.9-4.2,5.7c3,20.8,11.8,32.6,12.2,33.1
		c0.5,0.6,1,1.1,1.7,1.4C41.3,691.9,43,692,44.5,691.2z"/>
	<path class="st2" d="M76.7,485.8l23-66h332.4l23,66H76.7z"/>
	<path class="st2" d="M233.7,37.9l0.1-0.6c3.6-14.9,16.8-25.3,32.1-25.3s28.5,10.4,32.1,25.3l0.1,0.6l220.8,629.6
		c1.9,8.4,0.4,17-4.1,24.4c-4.6,7.5-11.9,12.8-20.4,14.8c-2.5,0.6-5.1,0.9-7.7,0.9c-15.3,0-28.5-10.4-32.1-25.3l-0.2-0.8
		L265.9,165.6L233.7,37.9z"/>
	<path class="st2" d="M45.1,707.7c-2.6,0-5.2-0.3-7.7-0.9c-17.5-4.2-28.4-21.7-24.5-39.2L233.7,37.9l0.1-0.6
		c3.6-14.9,16.8-25.3,32.1-25.3s28.5,10.4,32.1,25.3l0.1,0.6l-32.2,127.7L77.4,681.5l-0.2,0.8C73.6,697.3,60.5,707.7,45.1,707.7z"/>
</g>
<g id="а">
	<path d="M884.1,361.7c-18.1,0-33.8,10.7-40.9,26.2c-27.1-16.6-59-26.2-93.1-26.2c-98.7,0-179,80.3-179,179s80.3,179,179,179
		c34.1,0,66-9.6,93.1-26.2c7.1,15.5,22.7,26.2,40.9,26.2c24.9,0,45-20.1,45-45v-268C929.1,381.8,908.9,361.7,884.1,361.7z
		 M750.1,629.7c-49.1,0-89-39.9-89-89s39.9-89,89-89s89,39.9,89,89S799.1,629.7,750.1,629.7z"/>
	<path class="st0" d="M884.1,365.7c-18.1,0-33.5,11.8-38.9,28.1c-27.4-17.8-60-28.1-95.1-28.1c-96.5,0-175,78.5-175,175
		s78.5,175,175,175c35,0,67.7-10.4,95.1-28.1c5.4,16.3,20.8,28.1,38.9,28.1c22.6,0,41-18.4,41-41v-268
		C925.1,384,906.7,365.7,884.1,365.7z M750.1,633.7c-51.3,0-93-41.7-93-93s41.7-93,93-93s93,41.7,93,93S801.3,633.7,750.1,633.7z"/>
	<path class="st1" d="M750.1,707.7c-92.1,0-167-74.9-167-167s74.9-167,167-167s167,74.9,167,167S842.1,707.7,750.1,707.7z
		 M750.1,439.7c-55.7,0-101,45.3-101,101s45.3,101,101,101s101-45.3,101-101S805.7,439.7,750.1,439.7z"/>
	<path class="st1" d="M884.1,707.7c-18.2,0-33-14.8-33-33v-268c0-18.2,14.8-33,33-33s33,14.8,33,33v268
		C917.1,692.8,902.2,707.7,884.1,707.7z"/>
	<path class="st0" d="M884.1,424c-5,0-9-4-9-9s4-9,9-9s9,4,9,9S889,424,884.1,424z M893.1,451.9c0-5-4-9-9-9s-9,4-9,9s4,9,9,9
		S893.1,456.9,893.1,451.9z M893.1,488.8c0-5-4-9-9-9s-9,4-9,9c0,5,4,9,9,9S893.1,493.7,893.1,488.8z M893.1,525.7c0-5-4-9-9-9
		s-9,4-9,9s4,9,9,9S893.1,530.6,893.1,525.7z M893.1,562.5c0-5-4-9-9-9s-9,4-9,9s4,9,9,9S893.1,567.5,893.1,562.5z M893.1,599.4
		c0-5-4-9-9-9s-9,4-9,9s4,9,9,9S893.1,604.4,893.1,599.4z M893.1,636.3c0-5-4-9-9-9s-9,4-9,9s4,9,9,9S893.1,641.2,893.1,636.3z
		 M860.9,663.5c8.9,19.1,20.7,27.8,21.2,28.2c1.9,1.4,4.6,1.2,6.4-0.4c0.5-0.5,12.5-11.9,20.6-27.6c1.3-2.5,0.3-5.5-2.2-6.7
		c-2.5-1.3-5.5-0.3-6.7,2.2c-4.9,9.5-11.5,17.4-15.4,21.6c-3.6-3.6-9.7-10.5-14.8-21.5c-1.2-2.5-4.1-3.6-6.6-2.4
		c-1.8,0.8-2.9,2.7-2.9,4.5C860.5,662.1,860.6,662.8,860.9,663.5z"/>
	<path class="st0" d="M808.4,661.3c-1.1-2.2-1.1-4.7-0.5-6.8c0.3-1.1,0.8-2.1,1.5-3c0.3-0.4,0.7-0.8,1.2-1.2c0.4-0.4,0.9-0.7,1.4-1
		c2-1.2,4.3-1.3,6.5-0.8c2.2,0.5,4.3,1.9,5.6,3.9c1.4,2.1,1.8,4.5,1.2,6.8c-0.5,2.3-2.1,4.4-4.4,5.7c-0.6,0.3-1.2,0.6-1.8,0.8
		c-0.6,0.2-1.2,0.3-1.8,0.4c-1.2,0.1-2.4,0-3.6-0.3C811.4,665.2,809.5,663.5,808.4,661.3z M777.1,678.4c2,1.2,4.6,1.8,7.1,1.1
		c2.6-0.7,4.7-2.2,5.8-4.3c1.2-2.1,1.5-4.5,0.7-6.9c-0.8-2.4-2.4-4.2-4.3-5.3c-0.5-0.3-1-0.5-1.5-0.7c-0.5-0.2-1.1-0.3-1.6-0.4
		c-1.1-0.2-2.2-0.2-3.3,0.1c-2.2,0.6-4.1,1.9-5.3,3.9c-1.2,1.9-1.8,4.2-1.4,6.7C773.7,675,775.1,677.2,777.1,678.4z M738.6,680.5
		c1.6,1.7,3.9,3,6.6,3c2.7,0.1,5.1-0.8,6.7-2.6c1.7-1.7,2.6-3.9,2.6-6.4c-0.1-2.5-1.1-4.7-2.7-6.3c-1.6-1.5-3.7-2.7-6-2.7
		c-2.3,0-4.5,0.8-6.1,2.3c-1.7,1.5-2.9,3.7-3.1,6.1C736.2,676.4,737,678.8,738.6,680.5z M700.9,672.1c1,2.2,3,3.8,5.5,4.7
		c2.5,0.8,5.1,0.5,7.2-0.6c2.1-1.1,3.6-3.1,4.2-5.5c0.6-2.4,0.2-4.8-0.9-6.8c-1.1-2-2.8-3.5-5-4.2c-2.2-0.8-4.5-0.4-6.5,0.5
		c-2,1-3.8,2.7-4.7,5C699.7,667.5,699.8,670,700.9,672.1z M666.9,653.7c0.4,2.3,1.8,4.6,4,6c2.2,1.4,4.8,1.9,7.1,1.4
		c2.3-0.5,4.3-2,5.6-4.1c1.2-2.2,1.5-4.6,1-6.8c-0.5-2.2-1.7-4.2-3.7-5.4c-1.9-1.3-4.2-1.7-6.4-1.3c-2.2,0.4-4.3,1.5-5.9,3.5
		C667.1,649,666.5,651.4,666.9,653.7z M639.3,626.8c-0.2,2.3,0.4,4.9,2.2,6.9c0.9,1,1.9,1.8,3,2.3c1.1,0.5,2.3,0.8,3.5,0.9
		c2.4,0.1,4.7-0.7,6.4-2.5s2.7-4,2.8-6.3c0.1-1.1-0.1-2.2-0.4-3.3c-0.3-1.1-0.9-2.1-1.6-2.9c-1.6-1.7-3.6-2.8-5.8-3
		c-2.2-0.2-4.7,0.4-6.6,1.8C640.7,622.3,639.5,624.4,639.3,626.8z M619.9,593.3c-0.9,2.2-0.8,4.8,0.3,7.2c1,2.4,3.1,4.1,5.3,4.9
		c2.2,0.8,4.7,0.6,6.9-0.6c2.2-1.2,3.7-3.1,4.4-5.3c0.8-2.1,0.6-4.4-0.3-6.5c-1-2.1-2.8-3.6-4.8-4.5c-2.1-0.8-4.5-0.9-6.9-0.1
		C622.6,589.4,620.8,591.1,619.9,593.3z M610.5,555.9c-1.4,1.9-2.1,4.4-1.7,7c0.5,2.6,1.9,4.8,3.8,6.2c2,1.3,4.4,1.8,6.8,1.3
		c2.4-0.6,4.4-2,5.6-3.8c1.3-1.9,1.9-4.1,1.5-6.4c-0.3-2.3-1.6-4.2-3.4-5.6c-1.8-1.4-4.1-2.2-6.6-1.9
		C614.2,552.8,611.9,554,610.5,555.9z M611.7,517.3c-1.9,1.4-3.2,3.7-3.6,6.3c-0.4,2.6,0.5,5.1,2,6.9c1.5,1.8,3.7,3,6.1,3.1
		c2.5,0.1,4.8-0.7,6.5-2.2c1.8-1.4,2.8-3.4,3.2-5.7c0.3-2.3-0.5-4.5-1.8-6.3c-1.3-1.8-3.4-3.2-5.8-3.6
		C616,515.3,613.6,515.9,611.7,517.3z M623.2,480.4c-2.2,0.9-4.1,2.6-5.2,5.1c-1,2.5-0.9,5.1,0,7.2c1,2.2,2.8,3.9,5.1,4.7
		c2.4,0.8,4.8,0.6,6.8-0.3c2.1-0.9,3.8-2.5,4.6-4.6c0.9-2.1,0.9-4.4,0-6.5c-0.8-2.1-2.3-4-4.6-5.1
		C628,479.7,625.4,479.6,623.2,480.4z M644.5,448.2c-2.3,0.2-4.7,1.4-6.3,3.5c-0.8,1-1.4,2.2-1.7,3.4c-0.3,1.2-0.4,2.4-0.2,3.6
		c0.3,2.3,1.6,4.5,3.6,5.9s4.5,1.9,6.7,1.6c1.1-0.1,2.1-0.5,3.1-1c1-0.5,1.9-1.2,2.6-2.1c1.4-1.9,2-4,1.8-6.3
		c-0.2-2.2-1.2-4.5-3.1-6.2C649.2,448.7,646.8,448,644.5,448.2z M673.7,422.9c-1.2-0.2-2.4-0.2-3.6,0c-1.2,0.3-2.4,0.8-3.4,1.6
		c-2.2,1.5-3.4,3.8-3.8,6.2c-0.3,2.3,0.3,4.7,1.9,6.6c1.6,1.9,3.8,3,6,3.4c2.2,0.3,4.5-0.2,6.4-1.5c0.9-0.7,1.7-1.5,2.3-2.5
		c0.6-1,1-2,1.2-3.1c0.4-2.2,0.1-4.6-1.2-6.8C678.1,424.7,676,423.3,673.7,422.9z M708.7,406.5c-2.1-1-4.7-1.2-7.2-0.4
		c-2.5,0.9-4.4,2.8-5.3,4.9c-1,2.1-1,4.7,0,6.9c1,2.3,2.8,3.9,4.9,4.8c2.1,0.9,4.4,1.1,6.5,0.3c2.2-0.7,3.8-2.4,4.8-4.4
		c1-2,1.3-4.4,0.7-6.8C712.4,409.5,710.8,407.6,708.7,406.5z M746.8,400.4c-1.7-1.6-4.2-2.6-6.8-2.3c-2.6,0.2-5,1.4-6.5,3.2
		c-1.5,1.8-2.2,4.2-1.9,6.7c0.3,2.5,1.6,4.6,3.4,6c1.7,1.4,3.9,2.2,6.2,2.1c2.3-0.2,4.4-1.2,5.9-2.9c1.5-1.7,2.5-3.9,2.5-6.4
		C749.6,404.2,748.5,402,746.8,400.4z M785.2,404.7c-1.2-2-3.4-3.5-6-4.1c-2.6-0.6-5.2,0.1-7.1,1.4c-1.9,1.3-3.3,3.4-3.6,5.9
		c-0.3,2.5,0.3,4.8,1.6,6.7c1.3,1.9,3.2,3.1,5.4,3.7c2.3,0.5,4.5-0.1,6.4-1.2c1.9-1.1,3.4-3,4.1-5.4
		C786.8,409.2,786.4,406.8,785.2,404.7z M820.8,419.5c-0.3-1.1-0.9-2.2-1.7-3.2c-0.8-1-1.7-1.8-2.9-2.4c-2.4-1.2-5-1.4-7.2-0.6
		c-2.2,0.8-4.1,2.5-5.1,4.7c-1,2.3-1,4.7-0.3,6.8c0.7,2.2,2.1,4,4.2,5c1.1,0.5,2.1,0.8,3.2,0.9c1.1,0.1,2.2,0,3.3-0.3
		c2.2-0.6,4.2-2.1,5.5-4.2C821.2,424.2,821.5,421.7,820.8,419.5z M851.2,443.4c0-1.2-0.2-2.4-0.7-3.5c-0.5-1.1-1.2-2.2-2.2-3.1
		c-1-0.9-2.1-1.6-3.2-2c-1.2-0.4-2.4-0.6-3.6-0.5c-2.4,0.1-4.6,1.2-6.2,3.1s-2.3,4.3-2.1,6.5c0.1,1.1,0.3,2.2,0.8,3.2
		c0.4,1,1.1,2,1.9,2.8c0.8,0.8,1.8,1.4,2.9,1.7c1.1,0.4,2.1,0.6,3.2,0.6c2.2,0,4.6-0.8,6.4-2.5C850.2,448,851.2,445.8,851.2,443.4z
		 M848.3,663.3c9.6-18.7,9.2-33.4,9.1-34c-0.1-2.4-1.9-4.4-4.2-4.8c-0.7-0.1-17.1-2.5-34.4,0.8c-2.7,0.5-4.5,3.1-4,5.9
		c0.5,2.7,3.1,4.5,5.9,4c10.5-2,20.8-1.7,26.5-1.2c-0.6,5.1-2.3,14.1-7.8,24.9c-1.3,2.5-0.3,5.5,2.2,6.7c1.8,0.9,3.9,0.6,5.4-0.5
		C847.4,664.5,847.9,663.9,848.3,663.3z"/>
	<path class="st3" d="M750.1,707.7c-92.1,0-167-74.9-167-167s74.9-167,167-167s167,74.9,167,167S842.1,707.7,750.1,707.7z
		 M750.1,439.7c-55.7,0-101,45.3-101,101s45.3,101,101,101s101-45.3,101-101S805.7,439.7,750.1,439.7z"/>
	<path class="st3" d="M884.1,707.7c-18.2,0-33-14.8-33-33v-268c0-18.2,14.8-33,33-33s33,14.8,33,33v268
		C917.1,692.8,902.2,707.7,884.1,707.7z"/>
</g>
</svg>
